<svg width="183" height="36" viewBox="0 0 183 36" fill="none" xmlns="http://www.w3.org/2000/svg">
<g clip-path="url(#clip0_1000_52183)">
<path fill-rule="evenodd" clip-rule="evenodd" d="M58.5135 21.5073H59.6987L59.2067 25.6814C57.4175 26.503 55.3149 27.0436 52.452 27.0436C46.5456 27.0436 43.2578 23.1727 43.2578 18.7181C43.2578 13.2033 47.3962 9.74316 52.6304 9.74316C55.6727 9.74316 57.619 10.5434 58.7818 11.2789L58.9163 14.9987H57.7528C56.7692 12.2305 55.0687 11.1705 52.4067 11.1705C48.0894 11.1705 46.5239 14.2632 46.5239 17.8744C46.5239 21.8967 48.4698 25.6162 52.9215 25.6162C56.1205 25.6162 57.4845 24.2326 58.5135 21.5073Z" fill="#002DE4"/>
<path fill-rule="evenodd" clip-rule="evenodd" d="M71.1741 21.5939C71.1741 18.6961 69.8102 16.4471 67.3489 16.4471C65.2685 16.4471 64.3294 18.1552 64.3294 20.5125C64.3294 23.41 65.7159 25.659 68.1538 25.659C70.2343 25.659 71.1741 23.9726 71.1741 21.5939ZM61.4883 21.2697C61.4883 17.4632 64.4186 15.0625 67.9755 15.0625C71.5987 15.0625 74.0369 17.5064 74.0369 20.8368C74.0369 24.6428 71.0845 27.0433 67.5276 27.0433C63.9037 27.0433 61.4883 24.6001 61.4883 21.2697Z" fill="#002DE4"/>
<path fill-rule="evenodd" clip-rule="evenodd" d="M84.3929 24.9239C83.476 26.0267 82.0667 27.0433 80.2107 27.0433C78.0632 27.0433 76.5422 26.0053 76.5422 23.4752V17.7662C76.5422 17.0307 76.2065 16.7496 75.177 16.6199L74.7754 16.5551V15.6033L78.6672 15.0625H79.3384L79.226 17.2901V23.1075C79.226 24.6001 80.0762 25.1837 81.2831 25.1837C82.5362 25.1837 83.5427 24.5779 84.3929 23.9505V17.7662C84.3929 17.0307 84.0571 16.7496 83.0282 16.6199L82.6474 16.5551V15.6033L86.5405 15.0625H87.1892L87.0766 17.2901V24.2324C87.0766 24.9674 87.3233 25.1837 88.2845 25.2699L88.8666 25.3134V26.2865L84.7512 27.0433H84.2805L84.3929 24.9239Z" fill="#002DE4"/>
<path fill-rule="evenodd" clip-rule="evenodd" d="M94.4407 18.4586C95.5361 16.4259 96.5426 15.063 98.2427 15.063C98.7795 15.063 99.1142 15.1931 99.3381 15.3663V17.6801H98.4885C97.0567 17.6801 95.8498 17.9613 94.4407 19.4534V24.5785C94.4407 25.6382 95.0001 25.7034 96.5879 25.8762V26.8275H90.0557V25.8762C91.0848 25.7465 91.7558 25.6382 91.7558 24.6434V17.5721L90.1681 16.7284V16.1448L93.7462 15.042H94.5514L94.4407 18.4586Z" fill="#002DE4"/>
<path fill-rule="evenodd" clip-rule="evenodd" d="M100.524 25.9187L100.39 23.0427H101.553C101.978 24.8809 103.007 25.8322 104.842 25.8322C106.317 25.8322 107.257 25.2268 107.257 24.0375C107.257 23.0427 106.519 22.6749 105.289 22.3504L103.678 21.8964C101.754 21.3776 100.524 20.5343 100.524 18.4802C100.524 16.3391 102.202 15.0625 104.842 15.0625C106.452 15.0625 107.727 15.4088 108.755 15.9928V18.6308H107.636C107.279 16.9659 106.317 16.2739 104.729 16.2739C103.589 16.2739 102.806 16.7931 102.806 17.8306C102.806 18.6961 103.32 19.0638 104.394 19.3663L106.139 19.8419C108.287 20.4046 109.516 21.3124 109.516 23.4535C109.516 25.7242 107.615 27.0433 104.818 27.0433C102.94 27.0433 101.463 26.5676 100.524 25.9187Z" fill="#002DE4"/>
<path fill-rule="evenodd" clip-rule="evenodd" d="M113.497 19.2152H119.223C119.223 17.6578 118.283 16.4471 116.428 16.4471C114.773 16.4471 113.72 17.5933 113.497 19.2152ZM121.975 19.6909V20.3394H113.429C113.429 23.1723 114.794 24.9239 117.612 24.9239C119.335 24.9239 120.544 24.1454 121.281 23.259L121.997 23.5832C121.46 25.2699 119.894 27.0433 116.718 27.0433C113.139 27.0433 110.925 24.6428 110.925 21.4211C110.925 17.6147 113.52 15.0625 116.963 15.0625C120.252 15.0625 121.975 17.0742 121.975 19.6909Z" fill="#002DE4"/>
<path fill-rule="evenodd" clip-rule="evenodd" d="M142.099 18.8693H132.751V24.0596C132.751 25.4649 133.511 25.7033 135.188 25.7682V26.8274H127.382V25.7682C129.059 25.7033 129.82 25.4649 129.82 24.0596V12.728C129.82 11.3224 129.059 11.0844 127.382 11.0196V9.95996H135.188V11.0196C133.511 11.0844 132.751 11.3224 132.751 12.728V17.572H142.099V12.728C142.099 11.3224 141.339 11.0844 139.661 11.0196V9.95996H147.469V11.0196C145.792 11.0844 145.031 11.3224 145.031 12.728V24.0596C145.031 25.4649 145.792 25.7033 147.469 25.7682V26.8274H139.661V25.7682C141.339 25.7033 142.099 25.4649 142.099 24.0596V18.8693Z" fill="#002DE4"/>
<path fill-rule="evenodd" clip-rule="evenodd" d="M150.86 19.2152H156.586C156.586 17.6578 155.646 16.4471 153.789 16.4471C152.134 16.4471 151.084 17.5933 150.86 19.2152ZM159.337 19.6909V20.3394H150.792C150.792 23.1723 152.156 24.9239 154.974 24.9239C156.697 24.9239 157.906 24.1454 158.644 23.259L159.359 23.5832C158.822 25.2699 157.257 27.0433 154.08 27.0433C150.502 27.0433 148.287 24.6428 148.287 21.4211C148.287 17.6147 150.881 15.0625 154.326 15.0625C157.615 15.0625 159.337 17.0742 159.337 19.6909Z" fill="#002DE4"/>
<path fill-rule="evenodd" clip-rule="evenodd" d="M164.978 18.4581C166.073 16.4254 167.08 15.0625 168.78 15.0625C169.317 15.0625 169.652 15.1926 169.875 15.3658V17.6796H169.026C167.594 17.6796 166.387 17.9608 164.978 19.4529V24.578C164.978 25.6377 165.536 25.7029 167.125 25.8757V26.8271H160.593V25.8757C161.622 25.746 162.293 25.6377 162.293 24.6429V17.5717L160.704 16.7279V16.1443L164.284 15.0415H165.089L164.978 18.4581Z" fill="#002DE4"/>
<path fill-rule="evenodd" clip-rule="evenodd" d="M180.124 21.5939C180.124 18.6961 178.76 16.4471 176.3 16.4471C174.22 16.4471 173.279 18.1552 173.279 20.5125C173.279 23.41 174.667 25.659 177.105 25.659C179.185 25.659 180.124 23.9726 180.124 21.5939ZM170.438 21.2697C170.438 17.4632 173.369 15.0625 176.925 15.0625C180.551 15.0625 182.988 17.5064 182.988 20.8368C182.988 24.6428 180.036 27.0433 176.478 27.0433C172.854 27.0433 170.438 24.6001 170.438 21.2697Z" fill="#002DE4"/>
<path fill-rule="evenodd" clip-rule="evenodd" d="M23.4511 26.8272L17.2679 23.0739L11.0843 26.8272L12.8659 19.9816L7.26301 15.4563L14.5466 14.9787L17.2679 8.42816L19.9885 14.9787L27.2724 15.4563L21.6692 19.9816L23.4511 26.8272ZM17.2679 5.69376L0 0.9375V28.8288L17.2679 34.6724L34.5351 28.8288V0.9375L17.2679 5.69376Z" fill="#002DE4"/>
</g>
<defs>
<clipPath id="clip0_1000_52183">
<rect width="183" height="35" fill="white" transform="translate(0 0.5)"/>
</clipPath>
</defs>
</svg>
