<?xml version="1.0" encoding="UTF-8"?>
<svg id="Layer_2" data-name="Layer 2" xmlns="http://www.w3.org/2000/svg" viewBox="0 0 707.92 265.6">
  <defs>
    <style>
      .cls-1 {
        fill: #195388;
      }

      .cls-2 {
        fill-rule: evenodd;
      }

      .cls-2, .cls-3 {
        fill: #1c5287;
      }

      .cls-4 {
        fill: #fdb714;
      }
    </style>
  </defs>
  <g id="Layer_1-2" data-name="Layer 1">
    <g>
      <path class="cls-3" d="m301.1,225.81h16.39v6.96h-16.39c-7.66,0-11.02,3.83-11.02,12.97s3.3,12.91,11.02,12.91h6.6c3.89,0,5.54-2.36,5.54-5.6s-1.65-5.07-4.89-5.07h-8.84v-6.07h9.55c7.07,0,10.55,4.36,10.55,11.26s-3.48,12.44-12.38,12.44h-6.13c-11.61,0-17.98-6.54-17.98-19.87s6.43-19.92,17.98-19.92Zm51.37,0h6.96v25.99c0,3.83,1.89,6.84,8.13,6.84h15.44v6.96h-15.86c-10.55,0-14.68-5.78-14.68-13.73v-26.05Zm77.78,0h5.42c11.55,0,17.98,6.6,17.98,19.98s-6.37,19.81-17.98,19.81h-5.42c-11.61,0-17.98-6.48-17.98-19.81s6.43-19.98,17.98-19.98Zm5.42,6.96h-5.42c-7.66,0-11.02,3.89-11.02,13.03s3.3,12.85,11.02,12.85h5.42c7.66,0,10.96-3.77,10.96-12.91s-3.3-12.97-10.96-12.97Zm54.84-6.96h17.51c9.37,0,13.32,4.42,13.32,10.91,0,4.6-2,7.37-5.72,8.84,3.77,1.53,5.9,4.48,5.9,9.08,0,6.37-3.95,10.96-13.32,10.96h-17.68c-2.24,0-3.3-1.06-3.3-3.24v-33.3c0-2.18,1.06-3.24,3.3-3.24Zm3.54,22.58v9.67c0,.47.3.65.77.65h13.56c4.19,0,6.13-1.95,6.13-5.19s-2.06-5.13-6.13-5.13h-14.32Zm0-15.03v9.25h14.15c4.13,0,6.13-1.53,6.13-4.77s-1.83-5.19-6.07-5.19h-13.44c-.47,0-.77.24-.77.71Zm132.03-7.54h6.96v25.99c0,3.83,1.89,6.84,8.13,6.84h15.44v6.96h-15.86c-10.55,0-14.68-5.78-14.68-13.73v-26.05Z"/>
      <path class="cls-3" d="m571.49,233.59l-12.61,32.01h-7.66l13.97-35.37c1.47-3.71,4.18-5.13,8.37-5.13s6.84,1.42,8.25,5.13l13.44,35.37h-7.72l-12.08-32.01c-.35-.94-1-1.36-1.95-1.36s-1.59.41-2,1.36Z"/>
      <path class="cls-1" d="m673.51,7.86v-2.28h13.6v2.28h-5.48v15.28h-2.64V7.86h-5.48Z"/>
      <path class="cls-1" d="m690.11,5.58h3.22l5.59,13.66h.21l5.59-13.66h3.22v17.58h-2.52v-12.71h-.17l-5.18,12.68h-2.1l-5.18-12.7h-.17v12.73h-2.52V5.58h.01Z"/>
      <path class="cls-2" d="m53.31,176.22c-10.53,0-17.14-2.08-25.85-9.33-5.64-4.7-11.61-8.71-17.31-2.28l-6.75,7.02c-4.86,4.05-4.27,10.69.27,14.85,15.08,13.79,31.05,21.62,49.64,21.62,20.51,0,34.76-6.69,46.42-18.57,14.04-14.31,17.7-31.35,18.09-53.23V9.99c0-5.4-5.67-9.99-12.96-9.99h-57.42c-7.02,0-12.69,4.59-12.69,9.99v9.18c0,5.4,5.67,9.99,12.69,9.99h34.75v106.34c0,27.67-8.29,40.73-28.88,40.73Zm223.08,9.48c1.35,3.51,7.56,6.48,11.88,6.48h10.53c9.72,0,15.12-6.21,12.15-13.5l-27.9-72.06c6.08-1.08,12.04-1.86,17.75-2.38-56.2-21.52-128.75,7.5-147.93,45.27-3.21,7.46-4.53,11.18-7.72,20.18-.44,1.25-.92,2.6-1.45,4.08-.28.77-.5,1.51-.68,2.22l-1.04,2.7c-3.24,7.02,2.43,13.5,11.88,13.5h10.53c4.59,0,9.99-2.97,11.88-6.48l1.77-4.77c.32-.72.62-1.49.92-2.32,11.51-32.38,40.28-52.21,71.19-63.32l26.26,70.41Zm-50.2-134.62l12.03,32.26h16.64l20.03,2.23L244.27,6.48c-1.62-3.24-7.02-6.48-11.61-6.48h-12.68c-4.59,0-10.26,3.24-11.88,6.48l-40.18,104.62,45.52-25.68,12.74-34.34Zm240.17,45.01c0-36.71-28.61-66.94-63.97-66.94h-51.42c-7.02,0-12.96-4.59-12.96-9.99l-.27-9.18c0-5.4,5.94-9.99,13.23-9.99h51.42c13.77,0,26.72,2.43,38.87,7.56,12.15,5.4,22.94,12.69,31.04,20.51,9.99,9.99,17,20.51,21.59,30.77,4.59,11.07,7.56,25.37,7.56,37.25s-2.97,26.18-7.56,37.52c-4.59,9.99-11.61,20.51-21.59,30.5-8.1,7.83-18.89,15.12-31.04,20.51-12.15,5.13-25.1,7.56-38.87,7.56h-51.42c-7.29,0-13.23-4.59-13.23-9.99v-58.58c0-5.67,5.94-9.99,13.23-9.99h9.45c7.29,0,13.22,4.32,13.22,9.99v39.41h28.75c35.36,0,63.97-30.23,63.97-66.94Zm75.95-37.18c-7.29,0-13.23,4.59-13.23,9.99v113.3c0,5.4,5.94,9.99,13.23,9.99h103.38c7.56,0,12.96-4.59,12.96-9.99v-9.18c0-5.4-5.4-9.99-12.96-9.99h-80.7v-74.97h69.1c7.29,0,12.96-4.05,12.96-9.99v-9.18c0-5.4-5.67-9.99-12.96-9.99h-91.77Zm103.38-29.76c7.56,0,12.96-4.59,12.96-9.99v-9.18c0-5.4-5.4-9.99-12.96-9.99h-103.38c-7.29,0-13.23,4.59-13.23,9.99v9.18c0,5.4,5.94,9.99,13.23,9.99h103.38Z"/>
      <path class="cls-4" d="m161.98,125.79c52.82-47.89,120.31-37.09,148.02-23.22-52.07-48.8-111.66-27.95-132.64-16.22-4.06,10.12-11.9,31.93-15.38,39.44Z"/>
    </g>
  </g>
</svg>